<svg width="30" height="30" viewBox="0 0 30 30" fill="none" xmlns="http://www.w3.org/2000/svg">
<g clip-path="url(#clip0_16_311)">
<path d="M30 15C30 23.2843 23.2843 30 15 30C6.71573 30 0 23.2843 0 15C0 6.71573 6.71573 0 15 0C23.2843 0 30 6.71573 30 15Z" fill="white"/>
<g clip-path="url(#clip1_16_311)">
<path d="M25.5346 15.1939C25.5346 14.3244 25.4626 13.6899 25.3068 13.032H15.1759V16.9563H21.1225C21.0027 17.9315 20.3553 19.4002 18.9165 20.3871L22.3215 22.9721C24.3596 21.1274 25.5346 18.4132 25.5346 15.1939Z" fill="#4081F7"/>
<path d="M15.1752 25.5335C18.0886 25.5335 20.5343 24.5935 22.3208 22.9721L18.9158 20.3871C18.0047 21.0099 16.7817 21.4446 15.1752 21.4446C12.3218 21.4446 9.9 19.6 9.03669 17.0503L5.53585 19.7057C7.31024 23.16 10.955 25.5335 15.1752 25.5335Z" fill="#2EA950"/>
<path d="M9.03732 17.0504C8.80953 16.3925 8.6777 15.6874 8.6777 14.959C8.6777 14.2305 8.80953 13.5255 9.02533 12.8676L5.53647 10.2122C4.80516 11.6456 4.38553 13.2553 4.38553 14.959C4.38553 16.6627 4.80516 18.2723 5.53647 19.7058L9.03732 17.0504Z" fill="#FEBC03"/>
<path d="M15.1753 8.47332C17.2014 8.47332 18.5682 9.33103 19.3475 10.0478L22.3928 7.1339C20.5225 5.43023 18.0886 4.38452 15.1753 4.38452C10.955 4.38452 7.31025 6.7579 5.53585 10.2122L9.02472 12.8676C9.90002 10.318 12.3218 8.47332 15.1753 8.47332Z" fill="#EE402F"/>
</g>
</g>
<defs>
<clipPath id="clip0_16_311">
<rect width="30" height="30" fill="white"/>
</clipPath>
<clipPath id="clip1_16_311">
<rect width="21.2295" height="21.2295" fill="white" transform="translate(4.34426 4.34424)"/>
</clipPath>
</defs>
</svg>
