<svg width="24" height="24" viewBox="0 0 24 24" fill="none" xmlns="http://www.w3.org/2000/svg">
<path fill-rule="evenodd" clip-rule="evenodd" d="M12.3125 9.625C10.8282 9.625 9.625 10.8282 9.625 12.3125C9.625 13.7968 10.8282 15 12.3125 15C13.7968 15 15 13.7968 15 12.3125C15 10.8282 13.7968 9.625 12.3125 9.625ZM12.3125 13.125C11.8638 13.125 11.5 12.7612 11.5 12.3125C11.5 11.8638 11.8638 11.5 12.3125 11.5C12.7612 11.5 13.125 11.8638 13.125 12.3125C13.125 12.528 13.0394 12.7347 12.887 12.887C12.7347 13.0394 12.528 13.125 12.3125 13.125Z" fill="#141414"/>
<path fill-rule="evenodd" clip-rule="evenodd" d="M18.875 0.75H5.75C2.98858 0.75 0.75 2.98858 0.75 5.75V18.875C0.75 21.6364 2.98858 23.875 5.75 23.875H18.875C21.6364 23.875 23.875 21.6364 23.875 18.875V5.75C23.875 2.98858 21.6364 0.75 18.875 0.75ZM19.925 13.1375C19.9284 13.3938 19.8281 13.6406 19.6468 13.8218C19.4656 14.0031 19.2188 14.1034 18.9625 14.1C18.5747 14.1063 18.2276 14.3419 18.0784 14.6999C17.9293 15.0579 18.0065 15.4702 18.275 15.75C18.4559 15.9306 18.5576 16.1757 18.5576 16.4313C18.5576 16.6868 18.4559 16.9319 18.275 17.1125L17.1125 18.275C16.9319 18.4559 16.6868 18.5576 16.4312 18.5576C16.1757 18.5576 15.9306 18.4559 15.75 18.275C15.4702 18.0065 15.0578 17.9293 14.6999 18.0784C14.3419 18.2276 14.1063 18.5747 14.1 18.9625C14.1034 19.2188 14.0031 19.4656 13.8218 19.6468C13.6406 19.8281 13.3938 19.9284 13.1375 19.925H11.4875C11.2312 19.9284 10.9844 19.8281 10.8032 19.6468C10.6219 19.4656 10.5216 19.2188 10.525 18.9625C10.5187 18.5747 10.2831 18.2276 9.92513 18.0784C9.56714 17.9293 9.15479 18.0065 8.875 18.275C8.69444 18.4559 8.44934 18.5576 8.19375 18.5576C7.93815 18.5576 7.69305 18.4559 7.5125 18.275L6.35 17.1125C6.16909 16.9319 6.06743 16.6868 6.06743 16.4313C6.06743 16.1757 6.16909 15.9306 6.35 15.75C6.61854 15.4702 6.69572 15.0579 6.54656 14.6999C6.3974 14.3419 6.05026 14.1063 5.6625 14.1C5.4062 14.1034 5.15941 14.0031 4.97816 13.8218C4.79692 13.6406 4.6966 13.3938 4.7 13.1375V11.4875C4.6966 11.2312 4.79692 10.9844 4.97816 10.8032C5.15941 10.6219 5.4062 10.5216 5.6625 10.525C6.05026 10.5187 6.3974 10.2831 6.54656 9.92513C6.69572 9.56715 6.61854 9.1548 6.35 8.875C6.16909 8.69444 6.06743 8.44934 6.06743 8.19375C6.06743 7.93816 6.16909 7.69306 6.35 7.5125L7.5125 6.35C7.69305 6.16909 7.93815 6.06743 8.19375 6.06743C8.44934 6.06743 8.69444 6.16909 8.875 6.35C9.15479 6.61854 9.56714 6.69572 9.92513 6.54656C10.2831 6.3974 10.5187 6.05026 10.525 5.6625C10.5216 5.4062 10.6219 5.15941 10.8032 4.97817C10.9844 4.79692 11.2312 4.6966 11.4875 4.7H13.1375C13.3938 4.6966 13.6406 4.79692 13.8218 4.97817C14.0031 5.15941 14.1034 5.4062 14.1 5.6625C14.1063 6.05026 14.3419 6.3974 14.6999 6.54656C15.0578 6.69572 15.4702 6.61854 15.75 6.35C15.9306 6.16909 16.1757 6.06743 16.4312 6.06743C16.6868 6.06743 16.9319 6.16909 17.1125 6.35L18.275 7.5125C18.4559 7.69306 18.5576 7.93816 18.5576 8.19375C18.5576 8.44934 18.4559 8.69444 18.275 8.875C18.0065 9.1548 17.9293 9.56715 18.0784 9.92513C18.2276 10.2831 18.5747 10.5187 18.9625 10.525C19.2188 10.5216 19.4656 10.6219 19.6468 10.8032C19.8281 10.9844 19.9284 11.2312 19.925 11.4875V13.1375Z" fill="#141414"/>
</svg>
