<svg width="21" height="19" viewBox="0 0 21 19" fill="none" xmlns="http://www.w3.org/2000/svg">
<g id="Interface essential/Pen">
<g id="Icon">
<path fill-rule="evenodd" clip-rule="evenodd" d="M2.78677 11.9015L2.14499 16.0815C2.09864 16.4034 2.20302 16.7283 2.43125 16.9726C2.65947 17.2169 2.98925 17.3568 3.33566 17.3561H3.51299L7.97166 16.7545C8.57603 16.6763 9.13655 16.415 9.56766 16.0103L17.7925 8.29155C19.3927 6.73838 19.3698 4.26955 17.7411 2.74268C16.1125 1.21582 13.479 1.19437 11.8223 2.69446L3.58055 10.4053C3.14887 10.8095 2.87009 11.3349 2.78677 11.9015ZM8.63033 15.1711C8.39676 15.3814 8.10364 15.5243 7.78588 15.5828L3.38633 16.129L4.00277 12.0361C4.06516 11.7382 4.21758 11.4634 4.44188 11.2445L12.6752 3.53363C13.23 2.99971 13.9913 2.69857 14.7863 2.69857C15.5814 2.69857 16.3427 2.99971 16.8974 3.53363C17.4539 4.05224 17.7667 4.75744 17.7667 5.49301C17.7667 6.22857 17.4539 6.93378 16.8974 7.45238L8.63033 15.1711Z" fill="#F2F2F2"/>
<path d="M14.3894 5.04571C14.639 4.82772 15.0278 4.83415 15.269 5.06026C15.5102 5.28637 15.5171 5.65094 15.2845 5.88488L11.7294 9.2178C11.4822 9.44932 11.0816 9.44932 10.8343 9.2178C10.5874 8.98598 10.5874 8.61045 10.8343 8.37863L14.3894 5.04571Z" fill="#F2F2F2"/>
</g>
</g>
</svg>
